<svg width="400" height="400" viewBox="0 0 400 400" xmlns="http://www.w3.org/2000/svg">
  <defs>
    <radialGradient id="bg-gradient" cx="50%" cy="30%" r="70%">
      <stop offset="0%" style="stop-color:#667eea;stop-opacity:1" />
      <stop offset="50%" style="stop-color:#764ba2;stop-opacity:1" />
      <stop offset="100%" style="stop-color:#3b82f6;stop-opacity:1" />
    </radialGradient>
    <linearGradient id="face-gradient" x1="0%" y1="0%" x2="100%" y2="100%">
      <stop offset="0%" style="stop-color:#fbbf24;stop-opacity:1" />
      <stop offset="100%" style="stop-color:#f59e0b;stop-opacity:1" />
    </linearGradient>
  </defs>
  
  <!-- Background Circle -->
  <circle cx="200" cy="200" r="200" fill="url(#bg-gradient)" />
  
  <!-- Professional overlay -->
  <circle cx="200" cy="200" r="190" fill="none" stroke="#3b82f6" stroke-width="4" opacity="0.3" />
  
  <!-- Face -->
  <circle cx="200" cy="180" r="80" fill="url(#face-gradient)" />
  
  <!-- Hair -->
  <path d="M 120 140 Q 120 100 200 100 Q 280 100 280 140 Q 280 120 200 110 Q 120 120 120 140" fill="#1a1a1a" />
  
  <!-- Eyes -->
  <ellipse cx="175" cy="165" rx="8" ry="12" fill="#1a1a1a" />
  <ellipse cx="225" cy="165" rx="8" ry="12" fill="#1a1a1a" />
  
  <!-- Beard -->
  <path d="M 160 220 Q 200 240 240 220 Q 240 250 200 260 Q 160 250 160 220" fill="#2d2d2d" />
  
  <!-- Shirt -->
  <path d="M 140 280 Q 200 300 260 280 L 280 350 Q 200 380 120 350 Z" fill="#1f2937" />
  
  <!-- Professional tech icons overlay -->
  <g opacity="0.1">
    <!-- Kubernetes icon suggestion -->
    <circle cx="100" cy="100" r="15" fill="#326ce5" />
    <!-- Docker icon suggestion -->
    <circle cx="300" cy="100" r="15" fill="#2496ed" />
    <!-- AWS icon suggestion -->
    <circle cx="100" cy="300" r="15" fill="#ff9900" />
    <!-- Code icon suggestion -->
    <circle cx="300" cy="300" r="15" fill="#4ade80" />
  </g>
  
  <!-- Professional border -->
  <circle cx="200" cy="200" r="195" fill="none" stroke="#e5e7eb" stroke-width="2" opacity="0.5" />
</svg>